<svg xmlns="http://www.w3.org/2000/svg" width="900" height="52" viewBox="0 0 900 52" shape-rendering="crispEdges">
<path d="M4,0H896V4H900V48H896V52H4V48H0V4H4Z" fill="#2121de"/><path d="M8,4H892V8H896V44H892V48H8V44H4V8H8Z" fill="#0a0a14"/>
<g><path d="M347,15h9v3h-9zM344,18h3v3h-3zM356,18h3v3h-3zM344,21h3v3h-3zM344,24h3v3h-3zM350,24h9v3h-9zM344,27h3v3h-3zM356,27h3v3h-3zM344,30h3v3h-3zM356,30h3v3h-3zM347,33h12v3h-12zM362,15h15v3h-15zM362,18h3v3h-3zM362,21h3v3h-3zM362,24h12v3h-12zM362,27h3v3h-3zM362,30h3v3h-3zM362,33h15v3h-15zM380,15h15v3h-15zM386,18h3v3h-3zM386,21h3v3h-3zM386,24h3v3h-3zM386,27h3v3h-3zM386,30h3v3h-3zM386,33h3v3h-3zM419,15h9v3h-9zM422,18h3v3h-3zM422,21h3v3h-3zM422,24h3v3h-3zM422,27h3v3h-3zM422,30h3v3h-3zM419,33h9v3h-9zM434,15h3v3h-3zM446,15h3v3h-3zM434,18h3v3h-3zM446,18h3v3h-3zM434,21h6v3h-6zM446,21h3v3h-3zM434,24h3v3h-3zM440,24h3v3h-3zM446,24h3v3h-3zM434,27h3v3h-3zM443,27h6v3h-6zM434,30h3v3h-3zM446,30h3v3h-3zM434,33h3v3h-3zM446,33h3v3h-3zM470,15h15v3h-15zM476,18h3v3h-3zM476,21h3v3h-3zM476,24h3v3h-3zM476,27h3v3h-3zM476,30h3v3h-3zM476,33h3v3h-3zM491,15h9v3h-9zM488,18h3v3h-3zM500,18h3v3h-3zM488,21h3v3h-3zM500,21h3v3h-3zM488,24h3v3h-3zM500,24h3v3h-3zM488,27h3v3h-3zM500,27h3v3h-3zM488,30h3v3h-3zM500,30h3v3h-3zM491,33h9v3h-9zM506,15h3v3h-3zM518,15h3v3h-3zM506,18h3v3h-3zM518,18h3v3h-3zM506,21h3v3h-3zM518,21h3v3h-3zM506,24h3v3h-3zM518,24h3v3h-3zM506,27h3v3h-3zM518,27h3v3h-3zM506,30h3v3h-3zM518,30h3v3h-3zM509,33h9v3h-9zM527,15h9v3h-9zM524,18h3v3h-3zM536,18h3v3h-3zM524,21h3v3h-3zM524,24h3v3h-3zM524,27h3v3h-3zM524,30h3v3h-3zM536,30h3v3h-3zM527,33h9v3h-9zM542,15h3v3h-3zM554,15h3v3h-3zM542,18h3v3h-3zM554,18h3v3h-3zM542,21h3v3h-3zM554,21h3v3h-3zM542,24h15v3h-15zM542,27h3v3h-3zM554,27h3v3h-3zM542,30h3v3h-3zM554,30h3v3h-3zM542,33h3v3h-3zM554,33h3v3h-3z" fill="#7e2553" transform="translate(3,3)"/><path d="M347,15h9v3h-9zM344,18h3v3h-3zM356,18h3v3h-3zM344,21h3v3h-3zM344,24h3v3h-3zM350,24h9v3h-9zM344,27h3v3h-3zM356,27h3v3h-3zM344,30h3v3h-3zM356,30h3v3h-3zM347,33h12v3h-12zM362,15h15v3h-15zM362,18h3v3h-3zM362,21h3v3h-3zM362,24h12v3h-12zM362,27h3v3h-3zM362,30h3v3h-3zM362,33h15v3h-15zM380,15h15v3h-15zM386,18h3v3h-3zM386,21h3v3h-3zM386,24h3v3h-3zM386,27h3v3h-3zM386,30h3v3h-3zM386,33h3v3h-3zM419,15h9v3h-9zM422,18h3v3h-3zM422,21h3v3h-3zM422,24h3v3h-3zM422,27h3v3h-3zM422,30h3v3h-3zM419,33h9v3h-9zM434,15h3v3h-3zM446,15h3v3h-3zM434,18h3v3h-3zM446,18h3v3h-3zM434,21h6v3h-6zM446,21h3v3h-3zM434,24h3v3h-3zM440,24h3v3h-3zM446,24h3v3h-3zM434,27h3v3h-3zM443,27h6v3h-6zM434,30h3v3h-3zM446,30h3v3h-3zM434,33h3v3h-3zM446,33h3v3h-3zM470,15h15v3h-15zM476,18h3v3h-3zM476,21h3v3h-3zM476,24h3v3h-3zM476,27h3v3h-3zM476,30h3v3h-3zM476,33h3v3h-3zM491,15h9v3h-9zM488,18h3v3h-3zM500,18h3v3h-3zM488,21h3v3h-3zM500,21h3v3h-3zM488,24h3v3h-3zM500,24h3v3h-3zM488,27h3v3h-3zM500,27h3v3h-3zM488,30h3v3h-3zM500,30h3v3h-3zM491,33h9v3h-9zM506,15h3v3h-3zM518,15h3v3h-3zM506,18h3v3h-3zM518,18h3v3h-3zM506,21h3v3h-3zM518,21h3v3h-3zM506,24h3v3h-3zM518,24h3v3h-3zM506,27h3v3h-3zM518,27h3v3h-3zM506,30h3v3h-3zM518,30h3v3h-3zM509,33h9v3h-9zM527,15h9v3h-9zM524,18h3v3h-3zM536,18h3v3h-3zM524,21h3v3h-3zM524,24h3v3h-3zM524,27h3v3h-3zM524,30h3v3h-3zM536,30h3v3h-3zM527,33h9v3h-9zM542,15h3v3h-3zM554,15h3v3h-3zM542,18h3v3h-3zM554,18h3v3h-3zM542,21h3v3h-3zM554,21h3v3h-3zM542,24h15v3h-15zM542,27h3v3h-3zM554,27h3v3h-3zM542,30h3v3h-3zM554,30h3v3h-3zM542,33h3v3h-3zM554,33h3v3h-3z" fill="#ffec27"/></g>
</svg>
